<svg width="24" height="25" viewBox="0 0 24 25" fill="none" xmlns="http://www.w3.org/2000/svg">
<g id="icon/chevron/right">
<mask id="mask0_2066_422" style="mask-type:alpha" maskUnits="userSpaceOnUse" x="0" y="0" width="24" height="25">
<rect id="Bounding box" y="0.77832" width="24" height="24" fill="#D9D9D9"/>
</mask>
<g mask="url(#mask0_2066_422)">
<path id="chevron_right" d="M13.2925 12.7785L9.04634 8.53236C8.95276 8.43878 8.90276 8.32404 8.89634 8.18814C8.88993 8.05224 8.93993 7.93108 9.04634 7.82466C9.15276 7.71825 9.27071 7.66504 9.40019 7.66504C9.52968 7.66504 9.64763 7.71825 9.75404 7.82466L14.1425 12.2131C14.2297 12.3003 14.2909 12.3894 14.3262 12.4804C14.3614 12.5715 14.379 12.6708 14.379 12.7785C14.379 12.8862 14.3614 12.9856 14.3262 13.0766C14.2909 13.1676 14.2297 13.2567 14.1425 13.3439L9.75404 17.7324C9.66046 17.8259 9.54572 17.8759 9.40982 17.8824C9.27392 17.8888 9.15276 17.8388 9.04634 17.7324C8.93993 17.6259 8.88672 17.508 8.88672 17.3785C8.88672 17.249 8.93993 17.1311 9.04634 17.0247L13.2925 12.7785Z" fill="#DB0011"/>
</g>
</g>
</svg>
